# xmcd
#
# Track frame offsets:
#	150
#	17677
#	37011
#	58470
#	79292
#	100601
#	118673
#	138714
#	167890
#	185099
#	211483
#
# Disc length: 3019 seconds
#
# Revision: 1
# Processed by: cddbd v1.5.1PL2 Copyright (c) Steve Scherf et al.
# Submitted via: audiograbber 1.83.01
#
DISCID=a50bc90b
DTITLE=Ben Smith - Alone In The Network
DYEAR=1900
DGENRE=Blues
TTITLE0=Alone In The Network
TTITLE1=King And Country
TTITLE2=Big Fat Useless Benny
TTITLE3=Drive (Jamie's Song)
TTITLE4=Dreaming Of Home
TTITLE5=Casualties
TTITLE6=Come Back To Me Afternoon
TTITLE7=Gypsy Days
TTITLE8=Rag And Bone
TTITLE9=Love In The Corners
TTITLE10=Blinking Of An Eye
EXTD=
EXTT0=
EXTT1=
EXTT2=
EXTT3=
EXTT4=
EXTT5=
EXTT6=
EXTT7=
EXTT8=
EXTT9=
EXTT10=
PLAYORDER=
